<?xml version="1.0" encoding="utf-8" standalone="no"?>
<!DOCTYPE svg PUBLIC "-//W3C//DTD SVG 1.1//EN"
  "http://www.w3.org/Graphics/SVG/1.1/DTD/svg11.dtd">
<svg xmlns:xlink="http://www.w3.org/1999/xlink" width="1389.6pt" height="525.6pt" viewBox="0 0 1389.6 525.6" xmlns="http://www.w3.org/2000/svg" version="1.1">
 <metadata>
  <rdf:RDF xmlns:dc="http://purl.org/dc/elements/1.1/" xmlns:cc="http://creativecommons.org/ns#" xmlns:rdf="http://www.w3.org/1999/02/22-rdf-syntax-ns#">
   <cc:Work>
    <dc:type rdf:resource="http://purl.org/dc/dcmitype/StillImage"/>
    <dc:date>2025-10-09T05:36:35.269569</dc:date>
    <dc:format>image/svg+xml</dc:format>
    <dc:creator>
     <cc:Agent>
      <dc:title>Matplotlib v3.9.2, https://matplotlib.org/</dc:title>
     </cc:Agent>
    </dc:creator>
   </cc:Work>
  </rdf:RDF>
 </metadata>
 <defs>
  <style type="text/css">*{stroke-linejoin: round; stroke-linecap: butt}</style>
 </defs>
 <g id="figure_1">
  <g id="patch_1">
   <path d="M 0 525.6 
L 1389.6 525.6 
L 1389.6 0 
L 0 0 
z
" style="fill: #ffffff"/>
  </g>
  <g id="axes_1">
   <g id="patch_2">
    <path d="M 110.123202 454.262109 
L 679.137907 454.262109 
L 679.137907 7.2 
L 110.123202 7.2 
z
" style="fill: #ffffff"/>
   </g>
   <g id="matplotlib.axis_1">
    <g id="xtick_1">
     <g id="line2d_1">
      <defs>
       <path id="mdf4e760dae" d="M 0 0 
L 0 3.5 
" style="stroke: #000000; stroke-width: 0.8"/>
      </defs>
      <g>
       <use xlink:href="#mdf4e760dae" x="595.79737" y="454.262109" style="stroke: #000000; stroke-width: 0.8"/>
      </g>
     </g>
     <g id="text_1">
      <!-- $\mathdefault{−0.58}$ -->
      <g transform="translate(559.548963 482.017604) scale(0.3 -0.3)">
       <defs>
        <path id="CMSY10-0" d="M 4218 1472 
C 4326 1472 4442 1472 4442 1600 
C 4442 1728 4326 1728 4218 1728 
L 755 1728 
C 646 1728 531 1728 531 1600 
C 531 1472 646 1472 755 1472 
L 4218 1472 
z
" transform="scale(0.015625)"/>
        <path id="CMR17-30" d="M 2688 2038 
C 2688 2430 2682 3099 2413 3613 
C 2176 4063 1798 4224 1466 4224 
C 1158 4224 768 4082 525 3620 
C 269 3137 243 2539 243 2038 
C 243 1671 250 1112 448 623 
C 723 -39 1216 -128 1466 -128 
C 1760 -128 2208 -7 2470 604 
C 2662 1048 2688 1568 2688 2038 
z
M 1466 -26 
C 1056 -26 813 328 723 816 
C 653 1196 653 1749 653 2109 
C 653 2604 653 3015 736 3407 
C 858 3954 1216 4121 1466 4121 
C 1728 4121 2067 3947 2189 3420 
C 2272 3054 2278 2623 2278 2109 
C 2278 1691 2278 1176 2202 797 
C 2067 96 1690 -26 1466 -26 
z
" transform="scale(0.015625)"/>
        <path id="CMMI12-3a" d="M 1178 307 
C 1178 492 1024 620 870 620 
C 685 620 557 467 557 313 
C 557 128 710 0 864 0 
C 1050 0 1178 153 1178 307 
z
" transform="scale(0.015625)"/>
        <path id="CMR17-35" d="M 730 3750 
C 794 3724 1056 3641 1325 3641 
C 1920 3641 2246 3961 2432 4140 
C 2432 4191 2432 4224 2394 4224 
C 2387 4224 2374 4224 2323 4198 
C 2099 4102 1837 4032 1517 4032 
C 1325 4032 1037 4055 723 4191 
C 653 4224 640 4224 634 4224 
C 602 4224 595 4217 595 4090 
L 595 2231 
C 595 2113 595 2080 659 2080 
C 691 2080 704 2093 736 2139 
C 941 2435 1222 2560 1542 2560 
C 1766 2560 2246 2415 2246 1293 
C 2246 1087 2246 716 2054 422 
C 1894 159 1645 25 1370 25 
C 947 25 518 319 403 812 
C 429 806 480 793 506 793 
C 589 793 749 838 749 1036 
C 749 1209 627 1280 506 1280 
C 358 1280 262 1190 262 1011 
C 262 454 704 -128 1382 -128 
C 2042 -128 2669 441 2669 1267 
C 2669 2054 2170 2662 1549 2662 
C 1222 2662 947 2540 730 2304 
L 730 3750 
z
" transform="scale(0.015625)"/>
        <path id="CMR17-38" d="M 1741 2289 
C 2144 2494 2554 2803 2554 3298 
C 2554 3884 1990 4224 1472 4224 
C 890 4224 378 3800 378 3215 
C 378 3054 416 2777 666 2533 
C 730 2469 998 2276 1171 2154 
C 883 2006 211 1652 211 945 
C 211 282 838 -128 1459 -128 
C 2144 -128 2720 366 2720 1022 
C 2720 1607 2330 1877 2074 2051 
L 1741 2289 
z
M 902 2855 
C 851 2887 595 3086 595 3388 
C 595 3781 998 4076 1459 4076 
C 1965 4076 2336 3716 2336 3298 
C 2336 2700 1670 2359 1638 2359 
C 1632 2359 1626 2359 1574 2398 
L 902 2855 
z
M 2080 1536 
C 2176 1466 2483 1253 2483 861 
C 2483 385 2010 25 1472 25 
C 890 25 448 443 448 951 
C 448 1459 838 1884 1280 2083 
L 2080 1536 
z
" transform="scale(0.015625)"/>
       </defs>
       <use xlink:href="#CMSY10-0" transform="scale(0.996264)"/>
       <use xlink:href="#CMR17-30" transform="translate(77.487468 0) scale(0.996264)"/>
       <use xlink:href="#CMMI12-3a" transform="translate(123.177945 0) scale(0.996264)"/>
       <use xlink:href="#CMR17-35" transform="translate(150.275122 0) scale(0.996264)"/>
       <use xlink:href="#CMR17-38" transform="translate(195.965599 0) scale(0.996264)"/>
      </g>
     </g>
    </g>
    <g id="xtick_2">
     <g id="line2d_2">
      <g>
       <use xlink:href="#mdf4e760dae" x="480.844904" y="454.262109" style="stroke: #000000; stroke-width: 0.8"/>
      </g>
     </g>
     <g id="text_2">
      <!-- $\mathdefault{−0.57}$ -->
      <g transform="translate(444.596497 482.017604) scale(0.3 -0.3)">
       <defs>
        <path id="CMR17-37" d="M 2886 3955 
L 2886 4096 
L 1382 4096 
C 634 4096 621 4166 595 4288 
L 480 4288 
L 294 3104 
L 410 3104 
C 429 3226 474 3552 550 3673 
C 589 3724 1062 3724 1171 3724 
L 2579 3724 
L 1869 2670 
C 1395 1961 1069 1003 1069 166 
C 1069 89 1069 -128 1299 -128 
C 1530 -128 1530 89 1530 172 
L 1530 466 
C 1530 1514 1709 2204 2003 2644 
L 2886 3955 
z
" transform="scale(0.015625)"/>
       </defs>
       <use xlink:href="#CMSY10-0" transform="scale(0.996264)"/>
       <use xlink:href="#CMR17-30" transform="translate(77.487468 0) scale(0.996264)"/>
       <use xlink:href="#CMMI12-3a" transform="translate(123.177945 0) scale(0.996264)"/>
       <use xlink:href="#CMR17-35" transform="translate(150.275122 0) scale(0.996264)"/>
       <use xlink:href="#CMR17-37" transform="translate(195.965599 0) scale(0.996264)"/>
      </g>
     </g>
    </g>
    <g id="xtick_3">
     <g id="line2d_3">
      <g>
       <use xlink:href="#mdf4e760dae" x="365.892438" y="454.262109" style="stroke: #000000; stroke-width: 0.8"/>
      </g>
     </g>
     <g id="text_3">
      <!-- $\mathdefault{−0.56}$ -->
      <g transform="translate(329.644031 482.017604) scale(0.3 -0.3)">
       <defs>
        <path id="CMR17-36" d="M 678 2198 
C 678 3712 1395 4076 1811 4076 
C 1946 4076 2272 4049 2400 3782 
C 2298 3782 2106 3782 2106 3558 
C 2106 3385 2246 3328 2336 3328 
C 2394 3328 2566 3353 2566 3571 
C 2566 3987 2246 4224 1805 4224 
C 1043 4224 243 3411 243 2011 
C 243 257 966 -128 1478 -128 
C 2099 -128 2688 431 2688 1295 
C 2688 2101 2170 2688 1517 2688 
C 1126 2688 838 2430 678 1979 
L 678 2198 
z
M 1478 25 
C 691 25 691 1212 691 1450 
C 691 1914 909 2585 1504 2585 
C 1613 2585 1926 2585 2138 2140 
C 2253 1889 2253 1624 2253 1302 
C 2253 954 2253 696 2118 438 
C 1978 173 1773 25 1478 25 
z
" transform="scale(0.015625)"/>
       </defs>
       <use xlink:href="#CMSY10-0" transform="scale(0.996264)"/>
       <use xlink:href="#CMR17-30" transform="translate(77.487468 0) scale(0.996264)"/>
       <use xlink:href="#CMMI12-3a" transform="translate(123.177945 0) scale(0.996264)"/>
       <use xlink:href="#CMR17-35" transform="translate(150.275122 0) scale(0.996264)"/>
       <use xlink:href="#CMR17-36" transform="translate(195.965599 0) scale(0.996264)"/>
      </g>
     </g>
    </g>
    <g id="xtick_4">
     <g id="line2d_4">
      <g>
       <use xlink:href="#mdf4e760dae" x="250.939972" y="454.262109" style="stroke: #000000; stroke-width: 0.8"/>
      </g>
     </g>
     <g id="text_4">
      <!-- $\mathdefault{−0.55}$ -->
      <g transform="translate(214.691566 482.017604) scale(0.3 -0.3)">
       <use xlink:href="#CMSY10-0" transform="scale(0.996264)"/>
       <use xlink:href="#CMR17-30" transform="translate(77.487468 0) scale(0.996264)"/>
       <use xlink:href="#CMMI12-3a" transform="translate(123.177945 0) scale(0.996264)"/>
       <use xlink:href="#CMR17-35" transform="translate(150.275122 0) scale(0.996264)"/>
       <use xlink:href="#CMR17-35" transform="translate(195.965599 0) scale(0.996264)"/>
      </g>
     </g>
    </g>
    <g id="xtick_5">
     <g id="line2d_5">
      <g>
       <use xlink:href="#mdf4e760dae" x="135.987507" y="454.262109" style="stroke: #000000; stroke-width: 0.8"/>
      </g>
     </g>
     <g id="text_5">
      <!-- $\mathdefault{−0.54}$ -->
      <g transform="translate(99.7391 482.017604) scale(0.3 -0.3)">
       <defs>
        <path id="CMR17-34" d="M 2150 4147 
C 2150 4281 2144 4288 2029 4288 
L 128 1254 
L 128 1088 
L 1779 1088 
L 1779 460 
C 1779 230 1766 166 1318 166 
L 1197 166 
L 1197 0 
C 1402 12 1747 12 1965 12 
C 2182 12 2528 12 2733 0 
L 2733 166 
L 2611 166 
C 2163 166 2150 230 2150 460 
L 2150 1088 
L 2803 1088 
L 2803 1254 
L 2150 1254 
L 2150 4147 
z
M 1798 3723 
L 1798 1254 
L 256 1254 
L 1798 3723 
z
" transform="scale(0.015625)"/>
       </defs>
       <use xlink:href="#CMSY10-0" transform="scale(0.996264)"/>
       <use xlink:href="#CMR17-30" transform="translate(77.487468 0) scale(0.996264)"/>
       <use xlink:href="#CMMI12-3a" transform="translate(123.177945 0) scale(0.996264)"/>
       <use xlink:href="#CMR17-35" transform="translate(150.275122 0) scale(0.996264)"/>
       <use xlink:href="#CMR17-34" transform="translate(195.965599 0) scale(0.996264)"/>
      </g>
     </g>
    </g>
    <g id="text_6">
     <!-- $m_0$ -->
     <g transform="translate(377.033997 512.58655) scale(0.3 -0.3)">
      <defs>
       <path id="CMMI12-6d" d="M 1318 1870 
C 1331 1909 1491 2228 1728 2432 
C 1894 2585 2112 2687 2362 2687 
C 2618 2687 2707 2496 2707 2241 
C 2707 2202 2707 2075 2630 1775 
L 2470 1117 
C 2419 925 2298 453 2285 383 
C 2259 287 2221 121 2221 95 
C 2221 6 2291 -64 2387 -64 
C 2579 -64 2611 83 2669 313 
L 3053 1838 
C 3066 1890 3398 2687 4102 2687 
C 4358 2687 4448 2496 4448 2241 
C 4448 1883 4198 1187 4058 804 
C 4000 651 3968 568 3968 453 
C 3968 166 4166 -64 4474 -64 
C 5069 -64 5293 874 5293 913 
C 5293 945 5267 970 5229 970 
C 5171 970 5165 951 5133 842 
C 4986 332 4749 64 4493 64 
C 4429 64 4326 70 4326 274 
C 4326 440 4403 645 4429 715 
C 4544 1021 4832 1775 4832 2145 
C 4832 2528 4608 2816 4122 2816 
C 3693 2816 3347 2573 3091 2196 
C 3072 2541 2861 2816 2381 2816 
C 1811 2816 1510 2413 1395 2253 
C 1376 2617 1114 2816 832 2816 
C 646 2816 499 2726 378 2483 
C 262 2253 173 1864 173 1838 
C 173 1813 198 1781 243 1781 
C 294 1781 301 1787 339 1934 
C 435 2311 557 2687 813 2687 
C 960 2687 1011 2585 1011 2394 
C 1011 2253 947 2004 902 1807 
L 723 1117 
C 698 996 627 708 595 593 
C 550 427 480 127 480 95 
C 480 6 550 -64 646 -64 
C 723 -64 813 -26 864 70 
C 877 102 934 325 966 453 
L 1107 1028 
L 1318 1870 
z
" transform="scale(0.015625)"/>
      </defs>
      <use xlink:href="#CMMI12-6d" transform="scale(0.996264)"/>
      <use xlink:href="#CMR17-30" transform="translate(85.327224 -14.943915) scale(0.697382)"/>
     </g>
    </g>
   </g>
   <g id="matplotlib.axis_2">
    <g id="ytick_1">
     <g id="line2d_6">
      <defs>
       <path id="m7153d1b00d" d="M 0 0 
L -3.5 0 
" style="stroke: #000000; stroke-width: 0.8"/>
      </defs>
      <g>
       <use xlink:href="#m7153d1b00d" x="110.123202" y="405.827585" style="stroke: #000000; stroke-width: 0.8"/>
      </g>
     </g>
     <g id="text_7">
      <!-- $\mathdefault{0}$ -->
      <g transform="translate(89.416059 416.205333) scale(0.3 -0.3)">
       <use xlink:href="#CMR17-30" transform="scale(0.996264)"/>
      </g>
     </g>
    </g>
    <g id="ytick_2">
     <g id="line2d_7">
      <g>
       <use xlink:href="#m7153d1b00d" x="110.123202" y="332.847126" style="stroke: #000000; stroke-width: 0.8"/>
      </g>
     </g>
     <g id="text_8">
      <!-- $\mathdefault{200}$ -->
      <g transform="translate(62.001772 343.224874) scale(0.3 -0.3)">
       <defs>
        <path id="CMR17-32" d="M 2669 990 
L 2554 990 
C 2490 537 2438 460 2413 422 
C 2381 371 1920 371 1830 371 
L 602 371 
C 832 620 1280 1073 1824 1596 
C 2214 1966 2669 2400 2669 3033 
C 2669 3788 2067 4224 1395 4224 
C 691 4224 262 3603 262 3027 
C 262 2777 448 2745 525 2745 
C 589 2745 781 2783 781 3007 
C 781 3206 614 3264 525 3264 
C 486 3264 448 3257 422 3244 
C 544 3788 915 4057 1306 4057 
C 1862 4057 2227 3616 2227 3033 
C 2227 2477 1901 1998 1536 1583 
L 262 147 
L 262 0 
L 2515 0 
L 2669 990 
z
" transform="scale(0.015625)"/>
       </defs>
       <use xlink:href="#CMR17-32" transform="scale(0.996264)"/>
       <use xlink:href="#CMR17-30" transform="translate(45.690477 0) scale(0.996264)"/>
       <use xlink:href="#CMR17-30" transform="translate(91.380954 0) scale(0.996264)"/>
      </g>
     </g>
    </g>
    <g id="ytick_3">
     <g id="line2d_8">
      <g>
       <use xlink:href="#m7153d1b00d" x="110.123202" y="259.866667" style="stroke: #000000; stroke-width: 0.8"/>
      </g>
     </g>
     <g id="text_9">
      <!-- $\mathdefault{400}$ -->
      <g transform="translate(62.001772 270.244414) scale(0.3 -0.3)">
       <use xlink:href="#CMR17-34" transform="scale(0.996264)"/>
       <use xlink:href="#CMR17-30" transform="translate(45.690477 0) scale(0.996264)"/>
       <use xlink:href="#CMR17-30" transform="translate(91.380954 0) scale(0.996264)"/>
      </g>
     </g>
    </g>
    <g id="ytick_4">
     <g id="line2d_9">
      <g>
       <use xlink:href="#m7153d1b00d" x="110.123202" y="186.886207" style="stroke: #000000; stroke-width: 0.8"/>
      </g>
     </g>
     <g id="text_10">
      <!-- $\mathdefault{600}$ -->
      <g transform="translate(62.001772 197.263955) scale(0.3 -0.3)">
       <use xlink:href="#CMR17-36" transform="scale(0.996264)"/>
       <use xlink:href="#CMR17-30" transform="translate(45.690477 0) scale(0.996264)"/>
       <use xlink:href="#CMR17-30" transform="translate(91.380954 0) scale(0.996264)"/>
      </g>
     </g>
    </g>
    <g id="ytick_5">
     <g id="line2d_10">
      <g>
       <use xlink:href="#m7153d1b00d" x="110.123202" y="113.905748" style="stroke: #000000; stroke-width: 0.8"/>
      </g>
     </g>
     <g id="text_11">
      <!-- $\mathdefault{800}$ -->
      <g transform="translate(62.001772 124.283495) scale(0.3 -0.3)">
       <use xlink:href="#CMR17-38" transform="scale(0.996264)"/>
       <use xlink:href="#CMR17-30" transform="translate(45.690477 0) scale(0.996264)"/>
       <use xlink:href="#CMR17-30" transform="translate(91.380954 0) scale(0.996264)"/>
      </g>
     </g>
    </g>
    <g id="ytick_6">
     <g id="line2d_11">
      <g>
       <use xlink:href="#m7153d1b00d" x="110.123202" y="40.925288" style="stroke: #000000; stroke-width: 0.8"/>
      </g>
     </g>
     <g id="text_12">
      <!-- $\mathdefault{1000}$ -->
      <g transform="translate(48.294629 51.303036) scale(0.3 -0.3)">
       <defs>
        <path id="CMR17-31" d="M 1702 4083 
C 1702 4217 1696 4224 1606 4224 
C 1357 3927 979 3833 621 3820 
C 602 3820 570 3820 563 3808 
C 557 3795 557 3782 557 3648 
C 755 3648 1088 3686 1344 3839 
L 1344 467 
C 1344 243 1331 166 781 166 
L 589 166 
L 589 0 
C 896 6 1216 12 1523 12 
C 1830 12 2150 6 2458 0 
L 2458 166 
L 2266 166 
C 1715 166 1702 236 1702 467 
L 1702 4083 
z
" transform="scale(0.015625)"/>
       </defs>
       <use xlink:href="#CMR17-31" transform="scale(0.996264)"/>
       <use xlink:href="#CMR17-30" transform="translate(45.690477 0) scale(0.996264)"/>
       <use xlink:href="#CMR17-30" transform="translate(91.380954 0) scale(0.996264)"/>
       <use xlink:href="#CMR17-30" transform="translate(137.071431 0) scale(0.996264)"/>
      </g>
     </g>
    </g>
    <g id="text_13">
     <!-- $\tau_{\phi}^{int}$ -->
     <g transform="translate(31.761976 252.061831) rotate(-90) scale(0.3 -0.3)">
      <defs>
       <path id="CMMI12-1c" d="M 1837 2406 
L 2899 2406 
C 2982 2406 3194 2406 3194 2611 
C 3194 2752 3072 2752 2957 2752 
L 1197 2752 
C 1050 2752 832 2752 538 2438 
C 371 2253 166 1916 166 1878 
C 166 1839 198 1827 237 1827 
C 282 1827 288 1846 320 1884 
C 653 2406 986 2406 1146 2406 
L 1677 2406 
L 1011 223 
C 979 127 979 114 979 95 
C 979 25 1024 -64 1152 -64 
C 1350 -64 1382 108 1402 204 
L 1837 2406 
z
" transform="scale(0.015625)"/>
       <path id="CMMI12-69" d="M 1811 913 
C 1811 945 1786 970 1747 970 
C 1690 970 1683 951 1651 842 
C 1485 261 1222 64 1011 64 
C 934 64 845 83 845 274 
C 845 447 922 638 992 830 
L 1440 2017 
C 1459 2068 1504 2183 1504 2305 
C 1504 2573 1312 2816 998 2816 
C 410 2816 173 1890 173 1838 
C 173 1813 198 1781 243 1781 
C 301 1781 307 1807 333 1896 
C 486 2432 730 2687 979 2687 
C 1037 2687 1146 2681 1146 2477 
C 1146 2311 1062 2100 1011 1960 
L 563 772 
C 525 670 486 568 486 453 
C 486 166 685 -64 992 -64 
C 1581 -64 1811 868 1811 913 
z
M 1760 4012 
C 1760 4108 1683 4224 1542 4224 
C 1395 4224 1229 4083 1229 3916 
C 1229 3756 1363 3705 1440 3705 
C 1613 3705 1760 3871 1760 4012 
z
" transform="scale(0.015625)"/>
       <path id="CMMI12-6e" d="M 1318 1870 
C 1331 1909 1491 2228 1728 2432 
C 1894 2585 2112 2687 2362 2687 
C 2618 2687 2707 2496 2707 2241 
C 2707 1877 2445 1149 2317 804 
C 2259 651 2227 568 2227 453 
C 2227 166 2426 -64 2733 -64 
C 3328 -64 3552 874 3552 913 
C 3552 945 3526 970 3488 970 
C 3430 970 3424 951 3392 842 
C 3245 319 3002 64 2752 64 
C 2688 64 2586 70 2586 274 
C 2586 434 2656 625 2694 715 
C 2822 1066 3091 1781 3091 2145 
C 3091 2528 2867 2816 2381 2816 
C 1811 2816 1510 2413 1395 2253 
C 1376 2617 1114 2816 832 2816 
C 627 2816 486 2694 378 2477 
C 262 2247 173 1864 173 1838 
C 173 1813 198 1781 243 1781 
C 294 1781 301 1787 339 1934 
C 442 2324 557 2687 813 2687 
C 960 2687 1011 2585 1011 2394 
C 1011 2253 947 2004 902 1807 
L 723 1117 
C 698 996 627 708 595 593 
C 550 427 480 127 480 95 
C 480 6 550 -64 646 -64 
C 723 -64 813 -26 864 70 
C 877 102 934 325 966 453 
L 1107 1028 
L 1318 1870 
z
" transform="scale(0.015625)"/>
       <path id="CMMI12-74" d="M 1286 2566 
L 1875 2566 
C 1997 2566 2061 2566 2061 2681 
C 2061 2752 2022 2752 1894 2752 
L 1331 2752 
L 1568 3664 
C 1594 3752 1594 3764 1594 3808 
C 1594 3910 1510 3968 1427 3968 
C 1376 3968 1229 3948 1178 3746 
L 928 2752 
L 326 2752 
C 198 2752 141 2752 141 2630 
C 141 2566 186 2566 307 2566 
L 877 2566 
L 454 881 
C 403 657 384 593 384 510 
C 384 210 595 -64 954 -64 
C 1600 -64 1946 868 1946 913 
C 1946 951 1920 970 1882 970 
C 1869 970 1843 970 1830 944 
C 1824 938 1818 932 1773 830 
C 1638 510 1344 64 973 64 
C 781 64 768 223 768 364 
C 768 370 768 491 787 568 
L 1286 2566 
z
" transform="scale(0.015625)"/>
       <path id="CMMI12-1e" d="M 2752 4358 
C 2752 4416 2707 4416 2688 4416 
C 2630 4416 2624 4403 2598 4294 
L 2253 2924 
C 2234 2841 2227 2835 2221 2828 
C 2214 2816 2170 2809 2157 2809 
C 1107 2720 301 1863 301 1071 
C 301 387 832 -32 1498 -71 
C 1446 -266 1402 -467 1350 -662 
C 1261 -995 1210 -1204 1210 -1229 
C 1210 -1242 1210 -1280 1274 -1280 
C 1293 -1280 1318 -1280 1331 -1255 
C 1344 -1242 1382 -1089 1408 -1008 
L 1645 -71 
C 2739 -13 3571 875 3571 1673 
C 3571 2313 3085 2771 2374 2816 
L 2752 4358 
z
M 2336 2688 
C 2758 2662 3181 2428 3181 1806 
C 3181 1090 2675 140 1677 64 
L 2336 2688 
z
M 1530 57 
C 1216 76 691 241 691 938 
C 691 1737 1274 2624 2195 2681 
L 1530 57 
z
" transform="scale(0.015625)"/>
      </defs>
      <use xlink:href="#CMMI12-1c" transform="scale(0.996264)"/>
      <use xlink:href="#CMMI12-69" transform="translate(53.491165 36.153639) scale(0.697382)"/>
      <use xlink:href="#CMMI12-6e" transform="translate(76.786073 36.153639) scale(0.697382)"/>
      <use xlink:href="#CMMI12-74" transform="translate(117.546916 36.153639) scale(0.697382)"/>
      <use xlink:href="#CMMI12-1e" transform="translate(42.363841 -28.21539) scale(0.697382)"/>
     </g>
    </g>
   </g>
   <g id="line2d_12">
    <path d="M 653.273603 27.521005 
L 601.544993 181.855675 
L 549.816383 162.039519 
L 498.087774 278.159072 
L 446.359164 195.147028 
L 394.630555 91.763288 
L 342.901945 385.624561 
L 291.173335 425.746991 
L 239.444726 433.941104 
L 187.716116 382.053121 
L 135.987507 387.923493 
" clip-path="url(#p9554066608)" style="fill: none; stroke: #1f77b4; stroke-width: 1.5; stroke-linecap: square"/>
    <defs>
     <path id="ma18e73ffb4" d="M 0 3 
C 0.795609 3 1.55874 2.683901 2.12132 2.12132 
C 2.683901 1.55874 3 0.795609 3 0 
C 3 -0.795609 2.683901 -1.55874 2.12132 -2.12132 
C 1.55874 -2.683901 0.795609 -3 0 -3 
C -0.795609 -3 -1.55874 -2.683901 -2.12132 -2.12132 
C -2.683901 -1.55874 -3 -0.795609 -3 0 
C -3 0.795609 -2.683901 1.55874 -2.12132 2.12132 
C -1.55874 2.683901 -0.795609 3 0 3 
z
" style="stroke: #1f77b4"/>
    </defs>
    <g clip-path="url(#p9554066608)">
     <use xlink:href="#ma18e73ffb4" x="653.273603" y="27.521005" style="fill: #1f77b4; stroke: #1f77b4"/>
     <use xlink:href="#ma18e73ffb4" x="601.544993" y="181.855675" style="fill: #1f77b4; stroke: #1f77b4"/>
     <use xlink:href="#ma18e73ffb4" x="549.816383" y="162.039519" style="fill: #1f77b4; stroke: #1f77b4"/>
     <use xlink:href="#ma18e73ffb4" x="498.087774" y="278.159072" style="fill: #1f77b4; stroke: #1f77b4"/>
     <use xlink:href="#ma18e73ffb4" x="446.359164" y="195.147028" style="fill: #1f77b4; stroke: #1f77b4"/>
     <use xlink:href="#ma18e73ffb4" x="394.630555" y="91.763288" style="fill: #1f77b4; stroke: #1f77b4"/>
     <use xlink:href="#ma18e73ffb4" x="342.901945" y="385.624561" style="fill: #1f77b4; stroke: #1f77b4"/>
     <use xlink:href="#ma18e73ffb4" x="291.173335" y="425.746991" style="fill: #1f77b4; stroke: #1f77b4"/>
     <use xlink:href="#ma18e73ffb4" x="239.444726" y="433.941104" style="fill: #1f77b4; stroke: #1f77b4"/>
     <use xlink:href="#ma18e73ffb4" x="187.716116" y="382.053121" style="fill: #1f77b4; stroke: #1f77b4"/>
     <use xlink:href="#ma18e73ffb4" x="135.987507" y="387.923493" style="fill: #1f77b4; stroke: #1f77b4"/>
    </g>
   </g>
   <g id="line2d_13">
    <path d="M 653.273603 340.338166 
L 601.544993 334.4774 
L 549.816383 370.895695 
L 498.087774 404.39027 
L 446.359164 408.444706 
L 394.630555 413.695725 
L 342.901945 353.001799 
L 291.173335 370.269106 
L 239.444726 406.479939 
L 187.716116 383.527311 
L 135.987507 392.797547 
" clip-path="url(#p9554066608)" style="fill: none; stroke: #ff7f0e; stroke-width: 1.5; stroke-linecap: square"/>
    <defs>
     <path id="m5194e8c24e" d="M 0 3 
C 0.795609 3 1.55874 2.683901 2.12132 2.12132 
C 2.683901 1.55874 3 0.795609 3 0 
C 3 -0.795609 2.683901 -1.55874 2.12132 -2.12132 
C 1.55874 -2.683901 0.795609 -3 0 -3 
C -0.795609 -3 -1.55874 -2.683901 -2.12132 -2.12132 
C -2.683901 -1.55874 -3 -0.795609 -3 0 
C -3 0.795609 -2.683901 1.55874 -2.12132 2.12132 
C -1.55874 2.683901 -0.795609 3 0 3 
z
" style="stroke: #ff7f0e"/>
    </defs>
    <g clip-path="url(#p9554066608)">
     <use xlink:href="#m5194e8c24e" x="653.273603" y="340.338166" style="fill: #ff7f0e; stroke: #ff7f0e"/>
     <use xlink:href="#m5194e8c24e" x="601.544993" y="334.4774" style="fill: #ff7f0e; stroke: #ff7f0e"/>
     <use xlink:href="#m5194e8c24e" x="549.816383" y="370.895695" style="fill: #ff7f0e; stroke: #ff7f0e"/>
     <use xlink:href="#m5194e8c24e" x="498.087774" y="404.39027" style="fill: #ff7f0e; stroke: #ff7f0e"/>
     <use xlink:href="#m5194e8c24e" x="446.359164" y="408.444706" style="fill: #ff7f0e; stroke: #ff7f0e"/>
     <use xlink:href="#m5194e8c24e" x="394.630555" y="413.695725" style="fill: #ff7f0e; stroke: #ff7f0e"/>
     <use xlink:href="#m5194e8c24e" x="342.901945" y="353.001799" style="fill: #ff7f0e; stroke: #ff7f0e"/>
     <use xlink:href="#m5194e8c24e" x="291.173335" y="370.269106" style="fill: #ff7f0e; stroke: #ff7f0e"/>
     <use xlink:href="#m5194e8c24e" x="239.444726" y="406.479939" style="fill: #ff7f0e; stroke: #ff7f0e"/>
     <use xlink:href="#m5194e8c24e" x="187.716116" y="383.527311" style="fill: #ff7f0e; stroke: #ff7f0e"/>
     <use xlink:href="#m5194e8c24e" x="135.987507" y="392.797547" style="fill: #ff7f0e; stroke: #ff7f0e"/>
    </g>
   </g>
   <g id="line2d_14">
    <path d="M 653.273603 400.245603 
L 549.816383 401.123308 
L 446.359164 401.271573 
L 342.901945 403.059397 
L 239.444726 398.179015 
L 135.987507 401.072872 
" clip-path="url(#p9554066608)" style="fill: none; stroke: #2ca02c; stroke-width: 1.5; stroke-linecap: square"/>
    <defs>
     <path id="mdeccd2c31b" d="M 0 3 
C 0.795609 3 1.55874 2.683901 2.12132 2.12132 
C 2.683901 1.55874 3 0.795609 3 0 
C 3 -0.795609 2.683901 -1.55874 2.12132 -2.12132 
C 1.55874 -2.683901 0.795609 -3 0 -3 
C -0.795609 -3 -1.55874 -2.683901 -2.12132 -2.12132 
C -2.683901 -1.55874 -3 -0.795609 -3 0 
C -3 0.795609 -2.683901 1.55874 -2.12132 2.12132 
C -1.55874 2.683901 -0.795609 3 0 3 
z
" style="stroke: #2ca02c"/>
    </defs>
    <g clip-path="url(#p9554066608)">
     <use xlink:href="#mdeccd2c31b" x="653.273603" y="400.245603" style="fill: #2ca02c; stroke: #2ca02c"/>
     <use xlink:href="#mdeccd2c31b" x="549.816383" y="401.123308" style="fill: #2ca02c; stroke: #2ca02c"/>
     <use xlink:href="#mdeccd2c31b" x="446.359164" y="401.271573" style="fill: #2ca02c; stroke: #2ca02c"/>
     <use xlink:href="#mdeccd2c31b" x="342.901945" y="403.059397" style="fill: #2ca02c; stroke: #2ca02c"/>
     <use xlink:href="#mdeccd2c31b" x="239.444726" y="398.179015" style="fill: #2ca02c; stroke: #2ca02c"/>
     <use xlink:href="#mdeccd2c31b" x="135.987507" y="401.072872" style="fill: #2ca02c; stroke: #2ca02c"/>
    </g>
   </g>
   <g id="patch_3">
    <path d="M 110.123202 454.262109 
L 110.123202 7.2 
" style="fill: none; stroke: #000000; stroke-width: 0.8; stroke-linejoin: miter; stroke-linecap: square"/>
   </g>
   <g id="patch_4">
    <path d="M 679.137907 454.262109 
L 679.137907 7.2 
" style="fill: none; stroke: #000000; stroke-width: 0.8; stroke-linejoin: miter; stroke-linecap: square"/>
   </g>
   <g id="patch_5">
    <path d="M 110.123202 454.262109 
L 679.137907 454.262109 
" style="fill: none; stroke: #000000; stroke-width: 0.8; stroke-linejoin: miter; stroke-linecap: square"/>
   </g>
   <g id="patch_6">
    <path d="M 110.123202 7.2 
L 679.137907 7.2 
" style="fill: none; stroke: #000000; stroke-width: 0.8; stroke-linejoin: miter; stroke-linecap: square"/>
   </g>
   <g id="legend_1">
    <g id="patch_7">
     <path d="M 124.123202 108.652072 
L 356.271166 108.652072 
Q 360.271166 108.652072 360.271166 104.652072 
L 360.271166 21.2 
Q 360.271166 17.2 356.271166 17.2 
L 124.123202 17.2 
Q 120.123202 17.2 120.123202 21.2 
L 120.123202 104.652072 
Q 120.123202 108.652072 124.123202 108.652072 
z
" style="fill: #ffffff; opacity: 0.8; stroke: #cccccc; stroke-linejoin: miter"/>
    </g>
    <g id="line2d_15">
     <path d="M 128.123202 32.2 
L 148.123202 32.2 
L 168.123202 32.2 
" style="fill: none; stroke: #1f77b4; stroke-width: 1.5; stroke-linecap: square"/>
     <g>
      <use xlink:href="#ma18e73ffb4" x="148.123202" y="32.2" style="fill: #1f77b4; stroke: #1f77b4"/>
     </g>
    </g>
    <g id="text_14">
     <!-- HMC -->
     <g transform="translate(184.123202 39.2) scale(0.2 -0.2)">
      <defs>
       <path id="CMR17-48" d="M 3590 3898 
C 3590 4185 3661 4185 4102 4185 
L 4102 4352 
C 3917 4339 3578 4339 3379 4339 
C 3181 4339 2842 4339 2656 4352 
L 2656 4185 
C 3098 4185 3168 4185 3168 3898 
L 3168 2342 
L 1261 2342 
L 1261 3898 
C 1261 4185 1331 4185 1773 4185 
L 1773 4352 
C 1587 4339 1248 4339 1050 4339 
C 851 4339 512 4339 326 4352 
L 326 4185 
C 768 4185 838 4185 838 3898 
L 838 452 
C 838 166 768 166 326 166 
L 326 0 
C 512 12 851 12 1050 12 
C 1248 12 1587 12 1773 0 
L 1773 166 
C 1331 166 1261 166 1261 452 
L 1261 2176 
L 3168 2176 
L 3168 452 
C 3168 166 3098 166 2656 166 
L 2656 0 
C 2842 12 3181 12 3379 12 
C 3578 12 3917 12 4102 0 
L 4102 166 
C 3661 166 3590 166 3590 452 
L 3590 3898 
z
" transform="scale(0.015625)"/>
       <path id="CMR17-4d" d="M 1338 4249 
C 1299 4345 1293 4352 1158 4352 
L 339 4352 
L 339 4185 
C 781 4185 851 4185 851 3898 
L 851 624 
C 851 465 851 166 339 166 
L 339 0 
C 486 12 755 12 915 12 
C 1075 12 1344 12 1491 0 
L 1491 166 
C 979 166 979 465 979 624 
L 979 4159 
L 986 4159 
L 2490 102 
C 2515 38 2528 0 2579 0 
C 2630 0 2643 38 2669 102 
L 4186 4191 
L 4192 4191 
L 4192 453 
C 4192 166 4122 166 3680 166 
L 3680 0 
C 3853 12 4198 12 4384 12 
C 4570 12 4922 12 5094 0 
L 5094 166 
C 4653 166 4582 166 4582 453 
L 4582 3898 
C 4582 4185 4653 4185 5094 4185 
L 5094 4352 
L 4282 4352 
C 4147 4352 4141 4345 4102 4249 
L 2720 516 
L 1338 4249 
z
" transform="scale(0.015625)"/>
       <path id="CMR17-43" d="M 3974 4351 
C 3974 4467 3968 4473 3930 4473 
C 3904 4473 3898 4467 3853 4390 
L 3571 3849 
C 3258 4249 2874 4480 2381 4480 
C 1286 4480 294 3507 294 2179 
C 294 837 1286 -128 2387 -128 
C 3366 -128 3974 741 3974 1482 
C 3974 1547 3974 1573 3917 1573 
C 3866 1573 3866 1553 3859 1495 
C 3808 592 3168 38 2477 38 
C 1824 38 781 502 781 2179 
C 781 3862 1843 4313 2464 4313 
C 3187 4313 3712 3681 3834 2785 
C 3846 2707 3846 2695 3904 2695 
C 3974 2695 3974 2707 3974 2824 
L 3974 4351 
z
" transform="scale(0.015625)"/>
      </defs>
      <use xlink:href="#CMR17-48" transform="scale(0.996264)"/>
      <use xlink:href="#CMR17-4d" transform="translate(69.07243 0) scale(0.996264)"/>
      <use xlink:href="#CMR17-43" transform="translate(153.75937 0) scale(0.996264)"/>
     </g>
    </g>
    <g id="line2d_16">
     <path d="M 128.123202 60.075634 
L 148.123202 60.075634 
L 168.123202 60.075634 
" style="fill: none; stroke: #ff7f0e; stroke-width: 1.5; stroke-linecap: square"/>
     <g>
      <use xlink:href="#m5194e8c24e" x="148.123202" y="60.075634" style="fill: #ff7f0e; stroke: #ff7f0e"/>
     </g>
    </g>
    <g id="text_15">
     <!-- HMC+MG -->
     <g transform="translate(184.123202 67.075634) scale(0.2 -0.2)">
      <defs>
       <path id="CMR17-2b" d="M 2413 1472 
L 4109 1472 
C 4198 1472 4307 1472 4307 1580 
C 4307 1696 4205 1696 4109 1696 
L 2413 1696 
L 2413 3385 
C 2413 3475 2413 3584 2304 3584 
C 2189 3584 2189 3481 2189 3385 
L 2189 1696 
L 493 1696 
C 403 1696 294 1696 294 1587 
C 294 1472 397 1472 493 1472 
L 2189 1472 
L 2189 -194 
C 2189 -282 2189 -391 2298 -391 
C 2413 -391 2413 -289 2413 -194 
L 2413 1472 
z
" transform="scale(0.015625)"/>
       <path id="CMR17-47" d="M 3974 1258 
C 3974 1503 3994 1536 4390 1536 
L 4390 1702 
C 4237 1689 3891 1689 3718 1689 
C 3539 1689 3040 1696 2797 1702 
L 2797 1536 
L 2989 1536 
C 3539 1536 3552 1464 3552 1232 
L 3552 806 
C 3552 96 2720 38 2522 38 
C 1862 38 781 496 781 2179 
C 781 3862 1843 4313 2464 4313 
C 3187 4313 3712 3681 3834 2785 
C 3846 2708 3846 2695 3904 2695 
C 3974 2695 3974 2708 3974 2824 
L 3974 4351 
C 3974 4467 3968 4473 3930 4473 
C 3904 4473 3898 4467 3853 4390 
L 3571 3849 
C 3258 4249 2874 4480 2381 4480 
C 1286 4480 294 3507 294 2179 
C 294 858 1267 -128 2394 -128 
C 2912 -128 3418 57 3616 425 
C 3725 161 3904 -20 3936 -20 
C 3968 -20 3974 -13 3974 102 
L 3974 1258 
z
" transform="scale(0.015625)"/>
      </defs>
      <use xlink:href="#CMR17-48" transform="scale(0.996264)"/>
      <use xlink:href="#CMR17-4d" transform="translate(69.07243 0) scale(0.996264)"/>
      <use xlink:href="#CMR17-43" transform="translate(153.75937 0) scale(0.996264)"/>
      <use xlink:href="#CMR17-2b" transform="translate(220.269251 0) scale(0.996264)"/>
      <use xlink:href="#CMR17-4d" transform="translate(291.984039 0) scale(0.996264)"/>
      <use xlink:href="#CMR17-47" transform="translate(376.67098 0) scale(0.996264)"/>
     </g>
    </g>
    <g id="line2d_17">
     <path d="M 128.123202 87.951267 
L 148.123202 87.951267 
L 168.123202 87.951267 
" style="fill: none; stroke: #2ca02c; stroke-width: 1.5; stroke-linecap: square"/>
     <g>
      <use xlink:href="#mdeccd2c31b" x="148.123202" y="87.951267" style="fill: #2ca02c; stroke: #2ca02c"/>
     </g>
    </g>
    <g id="text_16">
     <!-- $\tau_{\phi}$ HMC+MG+CNN -->
     <g transform="translate(184.123202 94.951267) scale(0.2 -0.2)">
      <defs>
       <path id="CMR17-4e" d="M 1312 4275 
C 1267 4345 1261 4352 1139 4352 
L 326 4352 
L 326 4185 
L 448 4185 
C 704 4185 819 4153 838 4147 
L 838 624 
C 838 465 838 166 326 166 
L 326 0 
C 474 12 742 12 902 12 
C 1062 12 1331 12 1478 0 
L 1478 166 
C 966 166 966 465 966 624 
L 966 4057 
C 1011 4019 1011 4007 1056 3943 
L 3430 76 
C 3475 0 3494 0 3526 0 
C 3590 0 3590 19 3590 140 
L 3590 3726 
C 3590 3885 3590 4185 4102 4185 
L 4102 4352 
C 3955 4339 3686 4339 3526 4339 
C 3366 4339 3098 4339 2950 4352 
L 2950 4185 
C 3462 4185 3462 3885 3462 3726 
L 3462 777 
L 1312 4275 
z
" transform="scale(0.015625)"/>
      </defs>
      <use xlink:href="#CMMI12-1c" transform="scale(0.996264)"/>
      <use xlink:href="#CMMI12-1e" transform="translate(42.363841 -14.943915) scale(0.697382)"/>
      <use xlink:href="#CMR17-48" transform="translate(113.35168 0) scale(0.996264)"/>
      <use xlink:href="#CMR17-4d" transform="translate(182.42411 0) scale(0.996264)"/>
      <use xlink:href="#CMR17-43" transform="translate(267.11105 0) scale(0.996264)"/>
      <use xlink:href="#CMR17-2b" transform="translate(333.620931 0) scale(0.996264)"/>
      <use xlink:href="#CMR17-4d" transform="translate(405.335719 0) scale(0.996264)"/>
      <use xlink:href="#CMR17-47" transform="translate(490.02266 0) scale(0.996264)"/>
      <use xlink:href="#CMR17-2b" transform="translate(562.378006 0) scale(0.996264)"/>
      <use xlink:href="#CMR17-43" transform="translate(634.092794 0) scale(0.996264)"/>
      <use xlink:href="#CMR17-4e" transform="translate(700.602675 0) scale(0.996264)"/>
      <use xlink:href="#CMR17-4e" transform="translate(769.675104 0) scale(0.996264)"/>
     </g>
    </g>
   </g>
  </g>
  <g id="axes_2">
   <g id="patch_8">
    <path d="M 813.385294 454.262109 
L 1382.4 454.262109 
L 1382.4 7.2 
L 813.385294 7.2 
z
" style="fill: #ffffff"/>
   </g>
   <g id="matplotlib.axis_3">
    <g id="xtick_6">
     <g id="line2d_18">
      <g>
       <use xlink:href="#mdf4e760dae" x="1299.059462" y="454.262109" style="stroke: #000000; stroke-width: 0.8"/>
      </g>
     </g>
     <g id="text_17">
      <!-- $\mathdefault{−0.58}$ -->
      <g transform="translate(1262.811055 482.017604) scale(0.3 -0.3)">
       <use xlink:href="#CMSY10-0" transform="scale(0.996264)"/>
       <use xlink:href="#CMR17-30" transform="translate(77.487468 0) scale(0.996264)"/>
       <use xlink:href="#CMMI12-3a" transform="translate(123.177945 0) scale(0.996264)"/>
       <use xlink:href="#CMR17-35" transform="translate(150.275122 0) scale(0.996264)"/>
       <use xlink:href="#CMR17-38" transform="translate(195.965599 0) scale(0.996264)"/>
      </g>
     </g>
    </g>
    <g id="xtick_7">
     <g id="line2d_19">
      <g>
       <use xlink:href="#mdf4e760dae" x="1184.106997" y="454.262109" style="stroke: #000000; stroke-width: 0.8"/>
      </g>
     </g>
     <g id="text_18">
      <!-- $\mathdefault{−0.57}$ -->
      <g transform="translate(1147.85859 482.017604) scale(0.3 -0.3)">
       <use xlink:href="#CMSY10-0" transform="scale(0.996264)"/>
       <use xlink:href="#CMR17-30" transform="translate(77.487468 0) scale(0.996264)"/>
       <use xlink:href="#CMMI12-3a" transform="translate(123.177945 0) scale(0.996264)"/>
       <use xlink:href="#CMR17-35" transform="translate(150.275122 0) scale(0.996264)"/>
       <use xlink:href="#CMR17-37" transform="translate(195.965599 0) scale(0.996264)"/>
      </g>
     </g>
    </g>
    <g id="xtick_8">
     <g id="line2d_20">
      <g>
       <use xlink:href="#mdf4e760dae" x="1069.154531" y="454.262109" style="stroke: #000000; stroke-width: 0.8"/>
      </g>
     </g>
     <g id="text_19">
      <!-- $\mathdefault{−0.56}$ -->
      <g transform="translate(1032.906124 482.017604) scale(0.3 -0.3)">
       <use xlink:href="#CMSY10-0" transform="scale(0.996264)"/>
       <use xlink:href="#CMR17-30" transform="translate(77.487468 0) scale(0.996264)"/>
       <use xlink:href="#CMMI12-3a" transform="translate(123.177945 0) scale(0.996264)"/>
       <use xlink:href="#CMR17-35" transform="translate(150.275122 0) scale(0.996264)"/>
       <use xlink:href="#CMR17-36" transform="translate(195.965599 0) scale(0.996264)"/>
      </g>
     </g>
    </g>
    <g id="xtick_9">
     <g id="line2d_21">
      <g>
       <use xlink:href="#mdf4e760dae" x="954.202065" y="454.262109" style="stroke: #000000; stroke-width: 0.8"/>
      </g>
     </g>
     <g id="text_20">
      <!-- $\mathdefault{−0.55}$ -->
      <g transform="translate(917.953658 482.017604) scale(0.3 -0.3)">
       <use xlink:href="#CMSY10-0" transform="scale(0.996264)"/>
       <use xlink:href="#CMR17-30" transform="translate(77.487468 0) scale(0.996264)"/>
       <use xlink:href="#CMMI12-3a" transform="translate(123.177945 0) scale(0.996264)"/>
       <use xlink:href="#CMR17-35" transform="translate(150.275122 0) scale(0.996264)"/>
       <use xlink:href="#CMR17-35" transform="translate(195.965599 0) scale(0.996264)"/>
      </g>
     </g>
    </g>
    <g id="xtick_10">
     <g id="line2d_22">
      <g>
       <use xlink:href="#mdf4e760dae" x="839.249599" y="454.262109" style="stroke: #000000; stroke-width: 0.8"/>
      </g>
     </g>
     <g id="text_21">
      <!-- $\mathdefault{−0.54}$ -->
      <g transform="translate(803.001192 482.017604) scale(0.3 -0.3)">
       <use xlink:href="#CMSY10-0" transform="scale(0.996264)"/>
       <use xlink:href="#CMR17-30" transform="translate(77.487468 0) scale(0.996264)"/>
       <use xlink:href="#CMMI12-3a" transform="translate(123.177945 0) scale(0.996264)"/>
       <use xlink:href="#CMR17-35" transform="translate(150.275122 0) scale(0.996264)"/>
       <use xlink:href="#CMR17-34" transform="translate(195.965599 0) scale(0.996264)"/>
      </g>
     </g>
    </g>
    <g id="text_22">
     <!-- $m_0$ -->
     <g transform="translate(1080.29609 512.58655) scale(0.3 -0.3)">
      <use xlink:href="#CMMI12-6d" transform="scale(0.996264)"/>
      <use xlink:href="#CMR17-30" transform="translate(85.327224 -14.943915) scale(0.697382)"/>
     </g>
    </g>
   </g>
   <g id="matplotlib.axis_4">
    <g id="ytick_7">
     <g id="line2d_23">
      <g>
       <use xlink:href="#m7153d1b00d" x="813.385294" y="417.156131" style="stroke: #000000; stroke-width: 0.8"/>
      </g>
     </g>
     <g id="text_23">
      <!-- $\mathdefault{0}$ -->
      <g transform="translate(792.678151 427.533879) scale(0.3 -0.3)">
       <use xlink:href="#CMR17-30" transform="scale(0.996264)"/>
      </g>
     </g>
    </g>
    <g id="ytick_8">
     <g id="line2d_24">
      <g>
       <use xlink:href="#m7153d1b00d" x="813.385294" y="342.787277" style="stroke: #000000; stroke-width: 0.8"/>
      </g>
     </g>
     <g id="text_24">
      <!-- $\mathdefault{200}$ -->
      <g transform="translate(765.263865 353.165024) scale(0.3 -0.3)">
       <use xlink:href="#CMR17-32" transform="scale(0.996264)"/>
       <use xlink:href="#CMR17-30" transform="translate(45.690477 0) scale(0.996264)"/>
       <use xlink:href="#CMR17-30" transform="translate(91.380954 0) scale(0.996264)"/>
      </g>
     </g>
    </g>
    <g id="ytick_9">
     <g id="line2d_25">
      <g>
       <use xlink:href="#m7153d1b00d" x="813.385294" y="268.418422" style="stroke: #000000; stroke-width: 0.8"/>
      </g>
     </g>
     <g id="text_25">
      <!-- $\mathdefault{400}$ -->
      <g transform="translate(765.263865 278.796169) scale(0.3 -0.3)">
       <use xlink:href="#CMR17-34" transform="scale(0.996264)"/>
       <use xlink:href="#CMR17-30" transform="translate(45.690477 0) scale(0.996264)"/>
       <use xlink:href="#CMR17-30" transform="translate(91.380954 0) scale(0.996264)"/>
      </g>
     </g>
    </g>
    <g id="ytick_10">
     <g id="line2d_26">
      <g>
       <use xlink:href="#m7153d1b00d" x="813.385294" y="194.049567" style="stroke: #000000; stroke-width: 0.8"/>
      </g>
     </g>
     <g id="text_26">
      <!-- $\mathdefault{600}$ -->
      <g transform="translate(765.263865 204.427314) scale(0.3 -0.3)">
       <use xlink:href="#CMR17-36" transform="scale(0.996264)"/>
       <use xlink:href="#CMR17-30" transform="translate(45.690477 0) scale(0.996264)"/>
       <use xlink:href="#CMR17-30" transform="translate(91.380954 0) scale(0.996264)"/>
      </g>
     </g>
    </g>
    <g id="ytick_11">
     <g id="line2d_27">
      <g>
       <use xlink:href="#m7153d1b00d" x="813.385294" y="119.680712" style="stroke: #000000; stroke-width: 0.8"/>
      </g>
     </g>
     <g id="text_27">
      <!-- $\mathdefault{800}$ -->
      <g transform="translate(765.263865 130.058459) scale(0.3 -0.3)">
       <use xlink:href="#CMR17-38" transform="scale(0.996264)"/>
       <use xlink:href="#CMR17-30" transform="translate(45.690477 0) scale(0.996264)"/>
       <use xlink:href="#CMR17-30" transform="translate(91.380954 0) scale(0.996264)"/>
      </g>
     </g>
    </g>
    <g id="ytick_12">
     <g id="line2d_28">
      <g>
       <use xlink:href="#m7153d1b00d" x="813.385294" y="45.311857" style="stroke: #000000; stroke-width: 0.8"/>
      </g>
     </g>
     <g id="text_28">
      <!-- $\mathdefault{1000}$ -->
      <g transform="translate(751.556722 55.689604) scale(0.3 -0.3)">
       <use xlink:href="#CMR17-31" transform="scale(0.996264)"/>
       <use xlink:href="#CMR17-30" transform="translate(45.690477 0) scale(0.996264)"/>
       <use xlink:href="#CMR17-30" transform="translate(91.380954 0) scale(0.996264)"/>
       <use xlink:href="#CMR17-30" transform="translate(137.071431 0) scale(0.996264)"/>
      </g>
     </g>
    </g>
    <g id="text_29">
     <!-- $\tau_{\chi}^{int}$ -->
     <g transform="translate(736.099883 252.061831) rotate(-90) scale(0.3 -0.3)">
      <defs>
       <path id="CMMI12-1f" d="M 2112 1035 
C 1939 1562 1978 1511 1818 1956 
C 1619 2503 1568 2547 1478 2636 
C 1363 2739 1146 2816 922 2816 
C 563 2816 390 2484 390 2401 
C 390 2363 422 2344 461 2344 
C 512 2344 525 2376 531 2401 
C 627 2649 826 2687 883 2687 
C 1069 2687 1248 2230 1363 1925 
C 1517 1537 1594 1270 1766 653 
L 256 -1050 
C 198 -1120 198 -1146 198 -1152 
C 198 -1204 230 -1216 256 -1216 
C 282 -1216 301 -1204 320 -1184 
C 499 -1006 896 -535 1062 -345 
L 1805 494 
C 2118 -479 2118 -491 2214 -727 
C 2317 -968 2451 -1280 2995 -1280 
C 3360 -1280 3526 -955 3526 -866 
C 3526 -822 3488 -809 3456 -809 
C 3405 -809 3398 -835 3379 -886 
C 3309 -1064 3142 -1152 3040 -1152 
C 2957 -1152 2854 -1152 2573 -447 
C 2406 -21 2259 487 2150 882 
L 3667 2598 
C 3718 2655 3725 2662 3725 2687 
C 3725 2732 3693 2752 3661 2752 
C 3642 2752 3622 2752 3558 2681 
L 2112 1035 
z
" transform="scale(0.015625)"/>
      </defs>
      <use xlink:href="#CMMI12-1c" transform="scale(0.996264)"/>
      <use xlink:href="#CMMI12-69" transform="translate(53.491165 36.153639) scale(0.697382)"/>
      <use xlink:href="#CMMI12-6e" transform="translate(76.786073 36.153639) scale(0.697382)"/>
      <use xlink:href="#CMMI12-74" transform="translate(117.546916 36.153639) scale(0.697382)"/>
      <use xlink:href="#CMMI12-1f" transform="translate(42.363841 -24.62935) scale(0.697382)"/>
     </g>
    </g>
   </g>
   <g id="line2d_29">
    <path d="M 1356.535695 27.521005 
L 1304.807086 359.165879 
L 1253.078476 177.16587 
L 1201.349866 410.262896 
L 1149.621257 360.602835 
L 1097.892647 238.210338 
L 1046.164038 433.941104 
L 994.435428 392.299753 
L 942.706818 416.661265 
L 890.978209 397.053364 
L 839.249599 420.615733 
" clip-path="url(#p1e972a1160)" style="fill: none; stroke: #1f77b4; stroke-width: 1.5; stroke-linecap: square"/>
    <g clip-path="url(#p1e972a1160)">
     <use xlink:href="#ma18e73ffb4" x="1356.535695" y="27.521005" style="fill: #1f77b4; stroke: #1f77b4"/>
     <use xlink:href="#ma18e73ffb4" x="1304.807086" y="359.165879" style="fill: #1f77b4; stroke: #1f77b4"/>
     <use xlink:href="#ma18e73ffb4" x="1253.078476" y="177.16587" style="fill: #1f77b4; stroke: #1f77b4"/>
     <use xlink:href="#ma18e73ffb4" x="1201.349866" y="410.262896" style="fill: #1f77b4; stroke: #1f77b4"/>
     <use xlink:href="#ma18e73ffb4" x="1149.621257" y="360.602835" style="fill: #1f77b4; stroke: #1f77b4"/>
     <use xlink:href="#ma18e73ffb4" x="1097.892647" y="238.210338" style="fill: #1f77b4; stroke: #1f77b4"/>
     <use xlink:href="#ma18e73ffb4" x="1046.164038" y="433.941104" style="fill: #1f77b4; stroke: #1f77b4"/>
     <use xlink:href="#ma18e73ffb4" x="994.435428" y="392.299753" style="fill: #1f77b4; stroke: #1f77b4"/>
     <use xlink:href="#ma18e73ffb4" x="942.706818" y="416.661265" style="fill: #1f77b4; stroke: #1f77b4"/>
     <use xlink:href="#ma18e73ffb4" x="890.978209" y="397.053364" style="fill: #1f77b4; stroke: #1f77b4"/>
     <use xlink:href="#ma18e73ffb4" x="839.249599" y="420.615733" style="fill: #1f77b4; stroke: #1f77b4"/>
    </g>
   </g>
   <g id="line2d_30">
    <path d="M 1356.535695 353.436304 
L 1304.807086 365.678323 
L 1253.078476 420.180208 
L 1201.349866 414.762114 
L 1149.621257 417.460604 
L 1097.892647 426.114068 
L 1046.164038 410.141109 
L 994.435428 409.790789 
L 942.706818 414.924953 
L 890.978209 413.319691 
L 839.249599 422.740695 
" clip-path="url(#p1e972a1160)" style="fill: none; stroke: #ff7f0e; stroke-width: 1.5; stroke-linecap: square"/>
    <g clip-path="url(#p1e972a1160)">
     <use xlink:href="#m5194e8c24e" x="1356.535695" y="353.436304" style="fill: #ff7f0e; stroke: #ff7f0e"/>
     <use xlink:href="#m5194e8c24e" x="1304.807086" y="365.678323" style="fill: #ff7f0e; stroke: #ff7f0e"/>
     <use xlink:href="#m5194e8c24e" x="1253.078476" y="420.180208" style="fill: #ff7f0e; stroke: #ff7f0e"/>
     <use xlink:href="#m5194e8c24e" x="1201.349866" y="414.762114" style="fill: #ff7f0e; stroke: #ff7f0e"/>
     <use xlink:href="#m5194e8c24e" x="1149.621257" y="417.460604" style="fill: #ff7f0e; stroke: #ff7f0e"/>
     <use xlink:href="#m5194e8c24e" x="1097.892647" y="426.114068" style="fill: #ff7f0e; stroke: #ff7f0e"/>
     <use xlink:href="#m5194e8c24e" x="1046.164038" y="410.141109" style="fill: #ff7f0e; stroke: #ff7f0e"/>
     <use xlink:href="#m5194e8c24e" x="994.435428" y="409.790789" style="fill: #ff7f0e; stroke: #ff7f0e"/>
     <use xlink:href="#m5194e8c24e" x="942.706818" y="414.924953" style="fill: #ff7f0e; stroke: #ff7f0e"/>
     <use xlink:href="#m5194e8c24e" x="890.978209" y="413.319691" style="fill: #ff7f0e; stroke: #ff7f0e"/>
     <use xlink:href="#m5194e8c24e" x="839.249599" y="422.740695" style="fill: #ff7f0e; stroke: #ff7f0e"/>
    </g>
   </g>
   <g id="line2d_31">
    <path d="M 1356.535695 410.565199 
L 1253.078476 412.412463 
L 1149.621257 412.382969 
L 1046.164038 414.131846 
L 942.706818 408.719348 
L 839.249599 412.89001 
" clip-path="url(#p1e972a1160)" style="fill: none; stroke: #2ca02c; stroke-width: 1.5; stroke-linecap: square"/>
    <g clip-path="url(#p1e972a1160)">
     <use xlink:href="#mdeccd2c31b" x="1356.535695" y="410.565199" style="fill: #2ca02c; stroke: #2ca02c"/>
     <use xlink:href="#mdeccd2c31b" x="1253.078476" y="412.412463" style="fill: #2ca02c; stroke: #2ca02c"/>
     <use xlink:href="#mdeccd2c31b" x="1149.621257" y="412.382969" style="fill: #2ca02c; stroke: #2ca02c"/>
     <use xlink:href="#mdeccd2c31b" x="1046.164038" y="414.131846" style="fill: #2ca02c; stroke: #2ca02c"/>
     <use xlink:href="#mdeccd2c31b" x="942.706818" y="408.719348" style="fill: #2ca02c; stroke: #2ca02c"/>
     <use xlink:href="#mdeccd2c31b" x="839.249599" y="412.89001" style="fill: #2ca02c; stroke: #2ca02c"/>
    </g>
   </g>
   <g id="patch_9">
    <path d="M 813.385294 454.262109 
L 813.385294 7.2 
" style="fill: none; stroke: #000000; stroke-width: 0.8; stroke-linejoin: miter; stroke-linecap: square"/>
   </g>
   <g id="patch_10">
    <path d="M 1382.4 454.262109 
L 1382.4 7.2 
" style="fill: none; stroke: #000000; stroke-width: 0.8; stroke-linejoin: miter; stroke-linecap: square"/>
   </g>
   <g id="patch_11">
    <path d="M 813.385294 454.262109 
L 1382.4 454.262109 
" style="fill: none; stroke: #000000; stroke-width: 0.8; stroke-linejoin: miter; stroke-linecap: square"/>
   </g>
   <g id="patch_12">
    <path d="M 813.385294 7.2 
L 1382.4 7.2 
" style="fill: none; stroke: #000000; stroke-width: 0.8; stroke-linejoin: miter; stroke-linecap: square"/>
   </g>
   <g id="legend_2">
    <g id="patch_13">
     <path d="M 827.385294 106.826901 
L 1036.464432 106.826901 
Q 1040.464432 106.826901 1040.464432 102.826901 
L 1040.464432 21.2 
Q 1040.464432 17.2 1036.464432 17.2 
L 827.385294 17.2 
Q 823.385294 17.2 823.385294 21.2 
L 823.385294 102.826901 
Q 823.385294 106.826901 827.385294 106.826901 
z
" style="fill: #ffffff; opacity: 0.8; stroke: #cccccc; stroke-linejoin: miter"/>
    </g>
    <g id="line2d_32">
     <path d="M 831.385294 32.2 
L 851.385294 32.2 
L 871.385294 32.2 
" style="fill: none; stroke: #1f77b4; stroke-width: 1.5; stroke-linecap: square"/>
     <g>
      <use xlink:href="#ma18e73ffb4" x="851.385294" y="32.2" style="fill: #1f77b4; stroke: #1f77b4"/>
     </g>
    </g>
    <g id="text_30">
     <!-- HMC -->
     <g transform="translate(887.385294 39.2) scale(0.2 -0.2)">
      <use xlink:href="#CMR17-48" transform="scale(0.996264)"/>
      <use xlink:href="#CMR17-4d" transform="translate(69.07243 0) scale(0.996264)"/>
      <use xlink:href="#CMR17-43" transform="translate(153.75937 0) scale(0.996264)"/>
     </g>
    </g>
    <g id="line2d_33">
     <path d="M 831.385294 60.075634 
L 851.385294 60.075634 
L 871.385294 60.075634 
" style="fill: none; stroke: #ff7f0e; stroke-width: 1.5; stroke-linecap: square"/>
     <g>
      <use xlink:href="#m5194e8c24e" x="851.385294" y="60.075634" style="fill: #ff7f0e; stroke: #ff7f0e"/>
     </g>
    </g>
    <g id="text_31">
     <!-- HMC+MG -->
     <g transform="translate(887.385294 67.075634) scale(0.2 -0.2)">
      <use xlink:href="#CMR17-48" transform="scale(0.996264)"/>
      <use xlink:href="#CMR17-4d" transform="translate(69.07243 0) scale(0.996264)"/>
      <use xlink:href="#CMR17-43" transform="translate(153.75937 0) scale(0.996264)"/>
      <use xlink:href="#CMR17-2b" transform="translate(220.269251 0) scale(0.996264)"/>
      <use xlink:href="#CMR17-4d" transform="translate(291.984039 0) scale(0.996264)"/>
      <use xlink:href="#CMR17-47" transform="translate(376.67098 0) scale(0.996264)"/>
     </g>
    </g>
    <g id="line2d_34">
     <path d="M 831.385294 87.951267 
L 851.385294 87.951267 
L 871.385294 87.951267 
" style="fill: none; stroke: #2ca02c; stroke-width: 1.5; stroke-linecap: square"/>
     <g>
      <use xlink:href="#mdeccd2c31b" x="851.385294" y="87.951267" style="fill: #2ca02c; stroke: #2ca02c"/>
     </g>
    </g>
    <g id="text_32">
     <!-- HMC+MG+CNN -->
     <g transform="translate(887.385294 94.951267) scale(0.2 -0.2)">
      <use xlink:href="#CMR17-48" transform="scale(0.996264)"/>
      <use xlink:href="#CMR17-4d" transform="translate(69.07243 0) scale(0.996264)"/>
      <use xlink:href="#CMR17-43" transform="translate(153.75937 0) scale(0.996264)"/>
      <use xlink:href="#CMR17-2b" transform="translate(220.269251 0) scale(0.996264)"/>
      <use xlink:href="#CMR17-4d" transform="translate(291.984039 0) scale(0.996264)"/>
      <use xlink:href="#CMR17-47" transform="translate(376.67098 0) scale(0.996264)"/>
      <use xlink:href="#CMR17-2b" transform="translate(449.026326 0) scale(0.996264)"/>
      <use xlink:href="#CMR17-43" transform="translate(520.741114 0) scale(0.996264)"/>
      <use xlink:href="#CMR17-4e" transform="translate(587.250995 0) scale(0.996264)"/>
      <use xlink:href="#CMR17-4e" transform="translate(656.323425 0) scale(0.996264)"/>
     </g>
    </g>
   </g>
  </g>
 </g>
 <defs>
  <clipPath id="p9554066608">
   <rect x="110.123202" y="7.2" width="569.014706" height="447.062109"/>
  </clipPath>
  <clipPath id="p1e972a1160">
   <rect x="813.385294" y="7.2" width="569.014706" height="447.062109"/>
  </clipPath>
 </defs>
</svg>
